# This file uses meters as units for non-parametric coordinates.

mtllib TV.mtl
g default
v -52.458397 7.863831 191.170029
v 86.148781 7.863831 191.170029
v -52.458397 92.514511 191.170029
v 86.148781 92.514511 191.170029
v -52.458397 92.514511 178.303909
v 86.148781 92.514511 178.303909
v -52.458397 7.863831 178.303909
v 86.148781 7.863831 178.303909
v -46.283066 86.456894 180.054581
v 79.973450 86.456894 180.054581
v 79.973450 13.921452 180.054581
v -46.283066 13.921452 180.054581
v -14.820585 4.640411 191.124496
v 48.510971 4.640411 191.124496
v -14.820585 7.857381 191.124496
v 48.510971 7.857381 191.124496
v -14.820585 7.857381 178.340012
v 48.510971 7.857381 178.340012
v -14.820585 4.640411 178.340012
v 48.510971 4.640411 178.340012
v -52.043701 0.007605 195.016129
v 85.734085 0.007605 195.016129
v -52.043701 4.622517 195.016129
v 85.734085 4.622517 195.016129
v -52.043701 4.622517 174.042831
v 85.734085 4.622517 174.042831
v -52.043701 0.007605 174.042831
v 85.734085 0.007605 174.042831
v 81.316521 0.690421 174.054459
v 84.317482 0.690421 174.054459
v 81.316521 3.691379 174.054459
v 84.317482 3.691379 174.054459
v 81.316521 3.691379 173.310532
v 84.317482 3.691379 173.310532
v 81.316521 0.690421 173.310532
v 84.317482 0.690421 173.310532
v 77.214775 0.690421 174.054459
v 80.215736 0.690421 174.054459
v 77.214775 3.691379 174.054459
v 80.215736 3.691379 174.054459
v 77.214775 3.691379 173.310532
v 80.215736 3.691379 173.310532
v 77.214775 0.690421 173.310532
v 80.215736 0.690421 173.310532
v 73.285400 0.690421 174.054459
v 76.286362 0.690421 174.054459
v 73.285400 3.691379 174.054459
v 76.286362 3.691379 174.054459
v 73.285400 3.691379 173.310532
v 76.286362 3.691379 173.310532
v 73.285400 0.690421 173.310532
v 76.286362 0.690421 173.310532
vt 0.375000 0.000000
vt 0.625000 0.000000
vt 0.375000 0.250000
vt 0.625000 0.250000
vt 0.375000 0.500000
vt 0.625000 0.500000
vt 0.375000 0.750000
vt 0.625000 0.750000
vt 0.375000 1.000000
vt 0.625000 1.000000
vt 0.875000 0.000000
vt 0.875000 0.250000
vt 0.125000 0.000000
vt 0.125000 0.250000
vt 0.375000 0.500000
vt 0.625000 0.500000
vt 0.625000 0.750000
vt 0.375000 0.750000
vt 0.375000 0.000000
vt 0.625000 0.000000
vt 0.625000 0.250000
vt 0.375000 0.250000
vt 0.625000 0.500000
vt 0.375000 0.500000
vt 0.625000 0.750000
vt 0.375000 0.750000
vt 0.625000 1.000000
vt 0.375000 1.000000
vt 0.875000 0.000000
vt 0.875000 0.250000
vt 0.125000 0.000000
vt 0.125000 0.250000
vt 0.375000 0.000000
vt 0.625000 0.000000
vt 0.625000 0.250000
vt 0.375000 0.250000
vt 0.625000 0.500000
vt 0.375000 0.500000
vt 0.625000 0.750000
vt 0.375000 0.750000
vt 0.625000 1.000000
vt 0.375000 1.000000
vt 0.875000 0.000000
vt 0.875000 0.250000
vt 0.125000 0.000000
vt 0.125000 0.250000
vt 0.375000 0.000000
vt 0.625000 0.000000
vt 0.625000 0.250000
vt 0.375000 0.250000
vt 0.625000 0.500000
vt 0.375000 0.500000
vt 0.625000 0.750000
vt 0.375000 0.750000
vt 0.625000 1.000000
vt 0.375000 1.000000
vt 0.875000 0.000000
vt 0.875000 0.250000
vt 0.125000 0.000000
vt 0.125000 0.250000
vt 0.375000 0.000000
vt 0.625000 0.000000
vt 0.625000 0.250000
vt 0.375000 0.250000
vt 0.625000 0.500000
vt 0.375000 0.500000
vt 0.625000 0.750000
vt 0.375000 0.750000
vt 0.625000 1.000000
vt 0.375000 1.000000
vt 0.875000 0.000000
vt 0.875000 0.250000
vt 0.125000 0.000000
vt 0.125000 0.250000
vt 0.375000 0.000000
vt 0.625000 0.000000
vt 0.625000 0.250000
vt 0.375000 0.250000
vt 0.625000 0.500000
vt 0.375000 0.500000
vt 0.625000 0.750000
vt 0.375000 0.750000
vt 0.625000 1.000000
vt 0.375000 1.000000
vt 0.875000 0.000000
vt 0.875000 0.250000
vt 0.125000 0.000000
vt 0.125000 0.250000
vn 0.000000 0.000000 1.000000
vn 0.000000 0.000000 1.000000
vn 0.000000 0.000000 1.000000
vn 0.000000 0.000000 1.000000
vn 0.000000 1.000000 0.000000
vn 0.000000 1.000000 0.000000
vn 0.000000 1.000000 0.000000
vn 0.000000 1.000000 0.000000
vn 0.000000 0.000000 -1.000000
vn 0.000000 0.000000 -1.000000
vn 0.000000 0.000000 -1.000000
vn 0.000000 0.000000 -1.000000
vn 0.000000 -1.000000 0.000000
vn 0.000000 -1.000000 0.000000
vn 0.000000 -1.000000 0.000000
vn 0.000000 -1.000000 0.000000
vn 1.000000 0.000000 0.000000
vn 1.000000 0.000000 0.000000
vn 1.000000 0.000000 0.000000
vn 1.000000 0.000000 0.000000
vn -1.000000 0.000000 0.000000
vn -1.000000 0.000000 0.000000
vn -1.000000 0.000000 0.000000
vn -1.000000 0.000000 0.000000
vn 0.000000 -0.277641 -0.960685
vn 0.000000 -0.277641 -0.960685
vn 0.000000 -0.277641 -0.960685
vn 0.000000 -0.277641 -0.960685
vn -0.272748 0.000000 -0.962086
vn -0.272748 0.000000 -0.962086
vn -0.272748 0.000000 -0.962086
vn -0.272748 0.000000 -0.962086
vn 0.000000 0.277641 -0.960685
vn 0.000000 0.277641 -0.960685
vn 0.000000 0.277641 -0.960685
vn 0.000000 0.277641 -0.960685
vn 0.272747 0.000000 -0.962086
vn 0.272747 0.000000 -0.962086
vn 0.272747 0.000000 -0.962086
vn 0.272747 0.000000 -0.962086
vn 0.000000 0.000000 1.000000
vn 0.000000 0.000000 1.000000
vn 0.000000 0.000000 1.000000
vn 0.000000 0.000000 1.000000
vn 0.000000 1.000000 0.000000
vn 0.000000 1.000000 0.000000
vn 0.000000 1.000000 0.000000
vn 0.000000 1.000000 0.000000
vn 0.000000 0.000000 -1.000000
vn 0.000000 0.000000 -1.000000
vn 0.000000 0.000000 -1.000000
vn 0.000000 0.000000 -1.000000
vn 0.000000 -1.000000 0.000000
vn 0.000000 -1.000000 0.000000
vn 0.000000 -1.000000 0.000000
vn 0.000000 -1.000000 0.000000
vn 1.000000 0.000000 0.000000
vn 1.000000 0.000000 0.000000
vn 1.000000 0.000000 0.000000
vn 1.000000 0.000000 0.000000
vn -1.000000 0.000000 0.000000
vn -1.000000 0.000000 0.000000
vn -1.000000 0.000000 0.000000
vn -1.000000 0.000000 0.000000
vn 0.000000 0.000000 1.000000
vn 0.000000 0.000000 1.000000
vn 0.000000 0.000000 1.000000
vn 0.000000 0.000000 1.000000
vn 0.000000 1.000000 0.000000
vn 0.000000 1.000000 0.000000
vn 0.000000 1.000000 0.000000
vn 0.000000 1.000000 0.000000
vn 0.000000 0.000000 -1.000000
vn 0.000000 0.000000 -1.000000
vn 0.000000 0.000000 -1.000000
vn 0.000000 0.000000 -1.000000
vn 0.000000 -1.000000 0.000000
vn 0.000000 -1.000000 0.000000
vn 0.000000 -1.000000 0.000000
vn 0.000000 -1.000000 0.000000
vn 1.000000 0.000000 0.000000
vn 1.000000 0.000000 0.000000
vn 1.000000 0.000000 0.000000
vn 1.000000 0.000000 0.000000
vn -1.000000 0.000000 0.000000
vn -1.000000 0.000000 0.000000
vn -1.000000 0.000000 0.000000
vn -1.000000 0.000000 0.000000
vn 0.000000 0.000000 1.000000
vn 0.000000 0.000000 1.000000
vn 0.000000 0.000000 1.000000
vn 0.000000 0.000000 1.000000
vn 0.000000 1.000000 0.000000
vn 0.000000 1.000000 0.000000
vn 0.000000 1.000000 0.000000
vn 0.000000 1.000000 0.000000
vn 0.000000 0.000000 -1.000000
vn 0.000000 0.000000 -1.000000
vn 0.000000 0.000000 -1.000000
vn 0.000000 0.000000 -1.000000
vn 0.000000 -1.000000 0.000000
vn 0.000000 -1.000000 0.000000
vn 0.000000 -1.000000 0.000000
vn 0.000000 -1.000000 0.000000
vn 1.000000 0.000000 0.000000
vn 1.000000 0.000000 0.000000
vn 1.000000 0.000000 0.000000
vn 1.000000 0.000000 0.000000
vn -1.000000 0.000000 0.000000
vn -1.000000 0.000000 0.000000
vn -1.000000 0.000000 0.000000
vn -1.000000 0.000000 0.000000
vn 0.000000 0.000000 1.000000
vn 0.000000 0.000000 1.000000
vn 0.000000 0.000000 1.000000
vn 0.000000 0.000000 1.000000
vn 0.000000 1.000000 0.000000
vn 0.000000 1.000000 0.000000
vn 0.000000 1.000000 0.000000
vn 0.000000 1.000000 0.000000
vn 0.000000 0.000000 -1.000000
vn 0.000000 0.000000 -1.000000
vn 0.000000 0.000000 -1.000000
vn 0.000000 0.000000 -1.000000
vn 0.000000 -1.000000 0.000000
vn 0.000000 -1.000000 0.000000
vn 0.000000 -1.000000 0.000000
vn 0.000000 -1.000000 0.000000
vn 1.000000 0.000000 0.000000
vn 1.000000 0.000000 0.000000
vn 1.000000 0.000000 0.000000
vn 1.000000 0.000000 0.000000
vn -1.000000 0.000000 0.000000
vn -1.000000 0.000000 0.000000
vn -1.000000 0.000000 0.000000
vn -1.000000 0.000000 0.000000
vn 0.000000 0.000000 1.000000
vn 0.000000 0.000000 1.000000
vn 0.000000 0.000000 1.000000
vn 0.000000 0.000000 1.000000
vn 0.000000 1.000000 0.000000
vn 0.000000 1.000000 0.000000
vn 0.000000 1.000000 0.000000
vn 0.000000 1.000000 0.000000
vn 0.000000 0.000000 -1.000000
vn 0.000000 0.000000 -1.000000
vn 0.000000 0.000000 -1.000000
vn 0.000000 0.000000 -1.000000
vn 0.000000 -1.000000 0.000000
vn 0.000000 -1.000000 0.000000
vn 0.000000 -1.000000 0.000000
vn 0.000000 -1.000000 0.000000
vn 1.000000 0.000000 0.000000
vn 1.000000 0.000000 0.000000
vn 1.000000 0.000000 0.000000
vn 1.000000 0.000000 0.000000
vn -1.000000 0.000000 0.000000
vn -1.000000 0.000000 0.000000
vn -1.000000 0.000000 0.000000
vn -1.000000 0.000000 0.000000
s off
g pCube19
usemtl lambert26SG
f 1/1/1 2/2/2 4/4/3 3/3/4
f 3/3/5 4/4/6 6/6/7 5/5/8
usemtl lambert25SG
f 9/15/9 10/16/10 11/17/11 12/18/12
usemtl lambert26SG
f 7/7/13 8/8/14 2/10/15 1/9/16
f 2/2/17 8/11/18 6/12/19 4/4/20
f 7/13/21 1/1/22 3/3/23 5/14/24
f 5/5/25 6/6/26 10/16/27 9/15/28
f 6/6/29 8/8/30 11/17/31 10/16/32
f 8/8/33 7/7/34 12/18/35 11/17/36
f 7/7/37 5/5/38 9/15/39 12/18/40
f 13/19/41 14/20/42 16/21/43 15/22/44
f 15/22/45 16/21/46 18/23/47 17/24/48
f 17/24/49 18/23/50 20/25/51 19/26/52
f 19/26/53 20/25/54 14/27/55 13/28/56
f 14/20/57 20/29/58 18/30/59 16/21/60
f 19/31/61 13/19/62 15/22/63 17/32/64
f 21/33/65 22/34/66 24/35/67 23/36/68
f 23/36/69 24/35/70 26/37/71 25/38/72
f 25/38/73 26/37/74 28/39/75 27/40/76
f 27/40/77 28/39/78 22/41/79 21/42/80
f 22/34/81 28/43/82 26/44/83 24/35/84
f 27/45/85 21/33/86 23/36/87 25/46/88
usemtl lambert27SG
f 29/47/89 30/48/90 32/49/91 31/50/92
f 31/50/93 32/49/94 34/51/95 33/52/96
f 33/52/97 34/51/98 36/53/99 35/54/100
f 35/54/101 36/53/102 30/55/103 29/56/104
f 30/48/105 36/57/106 34/58/107 32/49/108
f 35/59/109 29/47/110 31/50/111 33/60/112
f 37/61/113 38/62/114 40/63/115 39/64/116
f 39/64/117 40/63/118 42/65/119 41/66/120
f 41/66/121 42/65/122 44/67/123 43/68/124
f 43/68/125 44/67/126 38/69/127 37/70/128
f 38/62/129 44/71/130 42/72/131 40/63/132
f 43/73/133 37/61/134 39/64/135 41/74/136
f 45/75/137 46/76/138 48/77/139 47/78/140
f 47/78/141 48/77/142 50/79/143 49/80/144
f 49/80/145 50/79/146 52/81/147 51/82/148
f 51/82/149 52/81/150 46/83/151 45/84/152
f 46/76/153 52/85/154 50/86/155 48/77/156
f 51/87/157 45/75/158 47/78/159 49/88/160
